/* XPM */
static const char *team_logo_xpm[] = {
/* columns rows colors chars-per-pixel */
"256 64 18 1 ",
"  c #FF3131",
". c #FF3737",
"X c #FF3A3A",
"o c #FF3F3F",
"O c #FF4545",
"+ c #FF4C4C",
"@ c #FF5959",
"# c #FF6868",
"$ c #FF7F7F",
"% c #FF9999",
"& c #FFB1B1",
"* c #FFC6C6",
"= c #FFD4D4",
"- c #FFE4E4",
"; c #FFEFEF",
": c #FFF7F7",
"> c #FFFBFB",
", c white",
/* pixels */
"                                                                                                                                                                                                                                                                ",
"                                                                                                                                                                                                                                                                ",
"                                                                                                                                                                                                                                                                ",
"                                                                                                                                                                                                                                                                ",
"                                                                                                                                                                                                                                                                ",
"                                                                                                                                                                                                                                                                ",
"                                                            #                                                                                                                                                                                                   ",
"                                      .                    @$                                                                                                                                                                                                   ",
"                                   @$&#          +        .*o                                                                               $$$$$$$$$$$$$$#O     $$$$$$$$$$$$$$$$$# #$$$$$$$$$$$$$+                                                             ",
"                                O%*$&$          #$       .%*                                                                                #;,,,,,,,,,,,,,,=#   #;,,,,,,,,,,,,,,,- #;,,,,,,,,,,,,,=$                                                           ",
"                              X%;$.&*         .%#$      +&:#                                                                                 O=,,,,,,,,,,,,,,>$   O*,,,,,,,,,,,,,,-  +=,,,,,,,,,,,,,,&X                                                         ",
"                             +-=+ $:+        O*###    +&*$-.                                                                                  .,,,,,,,,,,,,,,,,#   .,,,,,,,,,,,,,,-   .,,,,,,,,,,,,,,,*                                                         ",
"                            O--o .;%        +=# =. @%=,%X-%                                                                                    ,,;&@++++#=,,,,,=    ,,;&@+++++o X%-    ,,;%@+O @&,,,,,,$                                                        ",
"                           .=;O  @,O       +*+ X$&-,,=# %;o                                                                                    ,,,,:#    X-,,,,,+   ,,,,>#        O    ,,,,:@    %,,,,,;o                                                       ",
"                           %,#   $*       .#$&=,,,>*#  #>$                                                                                     ,,,,,$     %,,,,,$   ,,,,,$             ,,,,,#     *,,,,,$                                                       ",
"                          @>&    %$   o#%*:,,;*&%#o   +;=.                                                                                     ,,,,,$     $,,,,,%   ,,,,,$             ,,,,,#     #,,,,,*                                                       ",
"                          *;o    %@$&**&%$$@o        #;;+                                                                                      ,,,,,$     %,,,,,$   ,,,,,$             ,,,,,#      ;,,,,:.                                                      ",
"                         @,%     #$@.              X%>:@                                                                                       ,,,,,$    o-,,,,,@   ,,,,,*$$$$$$       ,,,,,#      *,,,,,+                                                      ",
"                         &>O                     .$-,-@                                                                                        ,,,,,%++@$=,,,,,-    ,,,,,,,,,,,=       ,,,,,#      %,,,,,#                                                      ",
"                         ;*                    .$-,,*o                                                                                         ,,,,,,,,,,,,,,,,$    ,,,,,,,,,,,$       ,,,,,#      %,,,,,$                                                      ",
"                        +,$                  .$-,,*#                                                                                           ,,,,,,,,,,,,,,,%     ,,,,,,,,,,;O       ,,,,,#      %,,,,,#                                                      ",
"                        #,@                 #-,-%+                                                                                             ,,,,-:,,,,,,,=#      ,,,,,%             ,,,,,#      *,,,,,+                                                      ",
"                       @-;o               .&,-#.                                                                                               ,,,,:$,,,,>&+        ,,,,,$             ,,,,,#      -,,,,:.                                                      ",
"                     .%:-+               X=;$.    o@##+                                                                                        ,,,,,#%,,,,,:$       ,,,,,$             ,,,,,#     @,,,,,*                                                       ",
"                    +=,&X               X=*O    O$%%&*::&#                                                                                     ,,,,,$ &,,,,,>#      ,,,,,$       #$    ,,,,,#     &,,,,,$                                                       ",
"                   #;;# @+o            X*$            .$*,=@                                     .++++++++++++o                                ,,,,,$ .=,,,,,;+     ,,,,,$       =*    ,,,,,#    $,,,,,;o                         .++++++++++++++o              ",
"                  @:=O#*$@#+          .&#                #->$                                    .=,,,,,,,,,,,,>=$.                            ,,,,,$  O-,,,,,=X    ,,,,,$      #,;    ,,,,,#  o%>,,,,,%                          .%:,,,,,,,,,,,,&              ",
"                 X-=X#*X  ..          #+                  X&,$                                    X=,,,,,,,,,,,,,,*X                          o,,,,,%   @:,,,,,*   o,,,,,,,,,,,,,,,@  O,,,,,,,,,,,,,,,*.                            $,,,,,,,,,,,,&              ",
"                 %;Oo=OO @&.                                %,$                                    X=,,,,,,,,,,,,,,=X                         $,,,,,*    #,,,,,,%  #,,,,,,,,,,,,,,,%  $,,,,,,,,,,,,,,*X                            o-,,,,,,,,,,,,&              ",
"                X;% &$*+ *.                                  %;o                                    +,,,,,,,,,,,,,,,&                         &,,,,,:.    =,,,,,,$ %,,,,,,,,,,,,,,,*  &,,,,,,,,,,,,;%.                             %,,,,,,,,,,,,,&              ",
"                $;.o=%#  &                             .+o    &%                                    +,,-$####$-,,,,,,@                        #%%%%%$X    $%%%%%%$ #$$%%%%%%%%%%%$$$  #$$$$$$$$$$$@.                              .-,,,,,*@++++#-&              ",
"                *% $%*  .-                            %>,,-$. o*                                    +,,,:%.   O-,,,,,&.#$$$$$$$$$$$$##o          @$$$$$$$#          .##$$$$$$$$$$$$#     .%&&&&&&&%#.      #$$$$$$.     @$$$$$$+  @,,,,,=.      o#              ",
"                :# %+&  &&                           @-#++#&=# $O                                   +,,,,,+    #,,,,,:o$:,,,,,,,,,,,,,,*@        O=,,,,,,,+          @=,,,,,,,,,,,,-      .*,,,,,,,,;%.    @-,,,,,%     +=,,,,,%  $,,,,,$                       ",
"               +:. & @o&&.                           %#     .$%o#                                   +,,,,,+     =,,,,,$ +=,,,,,,,,,,,,,,>$        .*,,,,,,%          +-,,,,,,,,,,,,-     O*,,,,,,,,,,,-@    o*,,,,,#     .&,,,,%  $,,,,,@                       ",
"               #=  % #%@                             .%&#     .#@                                   +,,,,,+     $,,,,,&  +,,,,,,,,,,,,,,,>@        *,,,,,,-         +;,,,,,,,,,,,,,-    O-,,,,,,,,,,,,,:#    .;,,,,;O      =,,,%  $,,,,,%                       ",
"               $&  $ .                                 O&-%@                                        +,,,,,+     O,,,,,=  +,,;%@++++#-,,,,,*       o:,>,,,,,@       .=,,,,,:%@+++++&-   .=,,,,,*#+@&,,,,,;O    -,,,,,*.     *,,,%  #,,,,,>%O                     ",
"               %$  .                                     +&,=#                                      +,,,,,+      ;,,,,:  +,,,,;@    O;,,,,,O      $,,&>,,,,%       $,,,,,;@        O   $,,,,,*.    %,,,,,&    -,,,,,,%     *,,,%  o>,,,,,,,=%#.                 ",
"              $-+          $$O              +$O            @=,&                                     +,,,,,+      *,,,,,O +,,,,,#     %,,,,,#      *,,%*,,,,-       -,,,,,#            .;,,,,;o     .=,,,,,+   -,,,,,,>#    *,,,%   *,,,,,,,,,,-$.               ",
"             %=O          o&               O;%=%X           .%,%                                    +,,,,,@      *,,,,,+ +,,,,,$     %,,,,,$     o:,,$$,,,,,#     #,,,,,*             #,,,,,%       $,,,,,%   -,,,,,,,-o   *,,,%   +:,,,,,,,,,,,=+              ",
"           .&*X      @.   &+               $* X&-O            $>#                                   +,,,,,#      &,,,,,+ +,,,,,$     &,,,,,$     $,,,#o:,,,,&     %,,,,,$             &,,,,,#       X,,,,,=   -,,,,,,,,*   *,,,%    #;,,,,,,,,,,,-o             ",
"           &&.      @%%&$%#                &*   &=.            $-.                                  +,,,,,#      &,,,,,+ +,,,,,$    O;,,,,,O     *,,,+ *,,,,;.    &,,,,,o             =,,,,,X        -,,,,:   -,,&,,,,,,$  *,,,%     o%-,,,,,,,,,,%             ",
"          %*o       &. .@@         +@X     &=   o;$             &#                                  +,,,,,#      *,,,,,+ +,,,,,%+++$-,,,,,=     o>,,=  $,,,,,#    =,,,,;   .+++++++O  -,,,,-         *,,,,,X  -,,%*,,,,,:@ *,,,%        @%=,,,,,,,:X            ",
"         o-$%      $#            o%::>=$.  $;    %;.       .##O @%                                  +,,,,,#      =,,,,,. +,,,,,,,,,,,,,,,,#     $,,,%  .:,,,,&    -,,,,-   X*,,,,,,,  -,,,,-         &,,,,,+  -,,-o-,,,,,-X&,,,%           +*,,,,,,#            ",
"         $$=.     .*           @%;*# #&:-# #,O   O>#       &*%=$ %                                  +,,,,,#     .:,,,,-  +,,,,,,,,,,,,,,,$      *,,,+   &,,,,:.   =,,,,;    .%,,,,,,  -,,,,-         *,,,,,o  -,,,@@>,,,,,&#,,,%            .=,,,,,$            ",
"        O*o%      $%       @%*;-%@     o*:++,+    **       =$  $$#                                  +,,,,,#     #,,,,,*  +,,,,->,,,,,,,=#      o,,,=    #,,,,,$   &,,,,,.     $,,,,,  =,,,,>.        =,,,,:   -,,,# %,,,,,,$;,,%             $,,,,,%            ",
"        *O .      =+      +;&$+         .=&+,+    #:X      $&   O#                                  +,,,,,#     %,,,,,$  +,,,,-$,,,,>%O        $,,,%    .;,,,,*   %,,,,,#     #,,,,,  &,,,,,@       .:,,,,=   -,,,#  *,,,,,;*,,%   #+        $,,,,,$            ",
"       O%        $&      O-$       +.    $;.,X    .-#      O:.                                      +,,,,,#    o;,,,,,+  +,,,,,@%,,,,,;#       *,,,;----->,,,,:X  #,,,,,&     #,,,,,  $,,,,,%       #,,,,,%   -,,,#  o-,,,,,,,,%   %%        %,,,,,$            ",
"       o%       $&.     O=$    .@%=%     @,@;      %%       =#                                      +,,,,,#    &,,,,,=   +,,,,,$.*,,,,,:@     O,,,,,,,,,,,,,,,,$  .;,,,,:+    $,,,,,  .;,,,,;.      *,,,,,@   -,,,#   @>,,,,,,,%   *;.      +;,,,,,+            ",
"        *.   $%%#      O&#$%&=;>=&#      .:$*      O=       $%                                      +,,,,,#  o&,,,,,,$   +,,,,,$ X-,,,,,-o    $,,,,,,,,,,,,,,,,*   $,,,,,-O   $,,,,,   %,,,,,&     $,,,,,*    -,,,#    %,,,,,,,%   ;,$    .#;,,,,,=             ",
"        #$  @@        +$@$$$##+ #o        =$$       &       +*                                      @,,,,,;--:,,,,,,=    +,,,,,$  +;,,,,,*.   =,-&&&&&&&&&=,,,,>O  .-,,,,,-$X $,,,,,   .-,,,,,&O o%>,,,,:+    -,,,#     *,,,,,,%  +,,:----:,,,,,,,$             ",
"         #$ .        +@         #;&X      &%O       #@       %                                      $,,,,,,,,,,,,,,:+    +,,,,,$   #>,,,,,&  @,,,%        @,,,,,%   @:,,,,,,,;;,,,,,@   +;,,,,,,-,,,,,,>#    .>,,,#     o-,,,,,%  $,,,,,,,,,,,,,,*              ",
"          oo        +.           #:=X     %$         o       #                                      &,,,,,,,,,,,,,:#     $,,,,,&    $,,,,,,$ *,,,$         -,,,,;O   #;,,,,,,,,,,,,,$    +-,,,,,,,,,,,;#     #,,,,#      @>,,,,=  %,,,,,,,,,,,,,=X              ",
"            +   Xo @+%O           #,%     #@                                                        =,,,,,,,,,,,,*+      &,,,,,;     -,,,,,>%,,,,O         %,,,,,%    o%:,,,,,,,,,,,&     X%:,,,,,,,>&O      %,,,,#       $,,,,,o *,,,,,,,,,,,;%.               ",
"            $$  X%#$@@$            &;     .                                                         $%%%%%%%%%%$+        $%%%%%%     $%%%%%%%%%%$          O%%%%%$      X#$%%%%%%%%%$       X$&***&$O        #%%%%O        $%%%%o #$$$$$$$$$$@.                 ",
"             %%. ##%&+             O:O                                                                                                                                                                                                                          ",
"              @%$#$                 &+                                                                                                                                                                                                                          ",
"                                    +.                                                                                                                                                                                                                          ",
"                                                                                                                                                                                                                                                                ",
"                                                                                                                                                                                                                                                                ",
"                                                                                                                                                                                                                                                                ",
"                                                                                                                                                                                                                                                                ",
"                                                                                                                                                                                                                                                                ",
"                                                                                                                                                                                                                                                                ",
"                                                                                                                                                                                                                                                                "
};
